<svg width="21" height="20" viewBox="0 0 21 20" fill="none" xmlns="http://www.w3.org/2000/svg">
<path d="M10.6413 19.5238C10.6236 19.5238 10.5718 19.5221 10.5471 19.5238C10.4863 19.5226 10.4518 19.5238 10.4529 19.5238C9.20104 19.5238 8.42052 18.9649 7.62782 18.3809C7.14433 18.0508 6.65235 17.6985 6.02693 17.619C5.79004 17.5532 5.50849 17.5294 5.27356 17.5238C4.74648 17.5294 4.36012 17.6061 4.04935 17.619C3.90637 17.696 3.7584 17.7252 3.67267 17.7143C3.52823 17.7252 3.40123 17.6994 3.39016 17.5238C3.29765 17.3416 3.26313 17.1813 3.20181 17.0476C3.14311 16.6258 3.08187 16.3796 2.9193 16.3809C0.98776 16.0519 0.435359 15.64 0.282532 15.3333C0.295203 15.3065 0.284928 15.2644 0.282532 15.2381C0.276707 15.1107 0.3548 15.0116 0.470873 14.9524C3.42959 14.499 4.75922 11.4281 4.80271 11.3333C4.81594 11.2944 4.81758 11.2907 4.80271 11.3333C5.00089 10.9146 5.03624 10.591 4.89688 10.2857C4.72182 9.84019 4.05803 9.62655 3.5785 9.5238C3.51138 9.45081 3.40945 9.41833 3.29598 9.42857C2.4522 9.03479 2.37945 8.67456 2.44845 8.47618C2.47275 8.17774 2.88541 7.95952 3.20181 7.99999C3.31081 7.95952 3.39137 7.97618 3.48433 7.99999C3.85376 8.19523 4.20887 8.29018 4.5202 8.28571C4.93965 8.29018 5.12461 8.10986 5.17939 8.09523C5.13612 7.8829 5.12296 7.67051 5.08522 7.42857C5.02103 6.03096 4.91129 4.26565 5.36773 3.23809C6.6844 0.238617 9.50313 0.00374229 10.3588 -5.72205e-06C10.3568 0.00374229 10.7004 -5.72205e-06 10.7354 -5.72205e-06V-5.72205e-06C11.5837 -5.72205e-06 14.409 0.234869 15.7265 3.23809C16.1825 4.2644 16.0728 6.03096 16.009 7.42857V7.5238C15.9684 7.70965 15.9565 7.90164 15.9148 8.09523C15.968 8.10778 16.1381 8.27352 16.4798 8.28571V8.28571C16.8146 8.27727 17.15 8.18274 17.5157 7.99999C17.626 7.95702 17.746 7.9462 17.7982 7.90476C17.9523 7.9462 18.0785 7.97077 18.1749 7.99999V7.99999C18.4875 8.12485 18.6827 8.33599 18.6458 8.57142C18.6909 8.76534 18.5339 9.0781 17.7982 9.42857C17.6852 9.41792 17.5832 9.4504 17.5157 9.5238C17.0354 9.62655 16.372 9.84019 16.1973 10.2857C16.0576 10.591 16.0929 10.9142 16.2915 11.3333C16.2762 11.2907 16.2779 11.294 16.2915 11.3333C16.3346 11.4281 17.663 14.4981 20.6233 14.9524C20.739 15.0116 20.8175 15.1107 20.8117 15.2381C20.8089 15.2648 20.7986 15.3073 20.8117 15.3333C20.6584 15.6384 20.1069 16.0498 18.1749 16.3809C18.0197 16.3763 17.9585 16.5845 17.8924 17.0476C17.8303 17.1796 17.7957 17.3358 17.7041 17.5238C17.707 17.6423 17.6194 17.7089 17.5157 17.7143H17.4215C17.3457 17.7089 17.2006 17.6902 17.0449 17.619C16.6897 17.589 16.3235 17.5294 15.8206 17.5238C15.5853 17.5294 15.3038 17.5532 15.0673 17.619C14.4419 17.6985 13.9503 18.05 13.4664 18.3809C12.6737 18.9649 11.8932 19.5238 10.6413 19.5238" fill="white"/>
</svg>
