<svg width="21" height="20" fill="none" xmlns="http://www.w3.org/2000/svg"><path d="M10.641 19.524c-.017 0-.07-.002-.094 0-.06-.001-.095 0-.094 0-1.252 0-2.032-.56-2.825-1.143-.484-.33-.976-.683-1.601-.762a3.242 3.242 0 00-.753-.095c-.528.005-.914.082-1.225.095a.705.705 0 01-.376.095c-.145.011-.272-.015-.283-.19-.092-.182-.127-.343-.188-.476-.059-.422-.12-.668-.283-.667C.988 16.05.435 15.64.283 15.333c.012-.027.002-.069 0-.095-.006-.127.072-.226.188-.286 2.959-.453 4.288-3.524 4.332-3.619.013-.039.015-.042 0 0 .198-.418.233-.742.094-1.047-.175-.446-.839-.66-1.319-.762a.333.333 0 00-.282-.095c-.844-.394-.917-.754-.848-.953.025-.298.437-.516.754-.476a.425.425 0 01.282 0c.37.195.725.29 1.036.286.42.004.605-.176.66-.19-.044-.213-.057-.425-.095-.667-.064-1.398-.174-3.163.283-4.19C6.684.238 9.503.003 10.358 0c-.001.004.342 0 .377 0 .849 0 3.674.235 4.992 3.238.456 1.026.346 2.793.282 4.19v.096c-.04.186-.053.378-.094.571.053.013.223.179.565.19.335-.008.67-.102 1.036-.285.11-.043.23-.054.282-.095.154.041.28.066.377.095.313.125.508.336.47.571.046.194-.111.507-.847.858a.332.332 0 00-.282.095c-.48.103-1.144.316-1.319.762-.14.305-.104.628.095 1.047-.016-.042-.014-.039 0 0 .043.095 1.371 3.165 4.331 3.62.116.059.194.158.189.285-.003.027-.013.07 0 .095-.154.305-.705.717-2.637 1.048-.155-.005-.216.203-.283.667-.062.132-.096.288-.188.476.003.118-.085.185-.188.19h-.094a1.11 1.11 0 01-.377-.095c-.355-.03-.722-.09-1.224-.095-.236.005-.517.03-.754.095-.625.08-1.117.431-1.6.762-.793.584-1.574 1.143-2.826 1.143" fill="#fff"/></svg>